<?xml version="1.0" encoding="UTF-8"?><svg id="a" xmlns="http://www.w3.org/2000/svg" width="16" height="16" viewBox="0 0 16 16"><defs><style>.b{fill:#fff;}</style></defs><path class="b" d="M11.55,9.57c-.8,0-1.45.65-1.45,1.45,0,.39.15.75.42,1.03.27.28.64.43,1.03.43.8,0,1.45-.65,1.45-1.45s-.65-1.45-1.45-1.45ZM11.16,11.41c-.1-.1-.16-.24-.16-.39,0-.3.25-.55.55-.55s.55.25.55.55c0,.45-.62.71-.94.39Z"/><path class="b" d="M14.91,10.07l-.51-.15s-.04-.1-.06-.14l.26-.48c.15-.28.11-.57-.11-.8l-.42-.41c-.17-.17-.45-.32-.83-.11l-.46.25s-.09-.04-.14-.06l-.15-.52c-.09-.32-.32-.49-.65-.49h-.6c-.32,0-.56.18-.65.49l-.15.52s-.1.04-.14.06l-.48-.26s-.17-.09-.33-.09c0,0,0,0,0,0-.17,0-.33.07-.47.21l-.42.42c-.23.23-.27.52-.11.81l.26.48s-.04.1-.06.14l-.52.15c-.32.09-.49.33-.49.65v.58c0,.33.18.57.5.66l.52.15s.04.1.06.14l-.26.48c-.15.28-.11.58.11.8l.41.41c.25.25.53.29.84.12l.46-.25s.1.04.14.06l.15.52c.09.31.33.49.65.49h.58c.34,0,.58-.18.67-.51l.14-.5s.1-.04.14-.06l.47.26c.29.16.58.12.82-.11l.42-.42c.23-.23.27-.52.11-.81l-.26-.47s.04-.1.06-.14l.52-.15c.31-.09.49-.33.49-.66v-.58c0-.34-.17-.57-.5-.67ZM14.51,11.16l-.52.15c-.19.05-.33.19-.39.38-.03.11-.08.22-.14.33-.07.13-.07.39,0,.53l.27.49-.18.18-.48-.27c-.17-.1-.36-.1-.54,0-.1.05-.2.1-.33.13-.18.06-.32.19-.37.38l-.14.49-.27.04-.15-.52c-.05-.2-.19-.33-.38-.39-.11-.03-.22-.08-.32-.13-.17-.09-.37-.09-.54,0l-.48.27-.18-.18.26-.48c.1-.17.1-.37,0-.54-.05-.1-.1-.21-.14-.33-.04-.15-.23-.33-.38-.37l-.53-.15v-.26l.52-.15c.19-.05.33-.19.39-.39.03-.11.08-.22.13-.32.09-.17.09-.37,0-.54l-.27-.48.18-.18.48.27c.14.08.4.08.53,0,.11-.06.22-.1.33-.14.19-.05.33-.19.38-.38l.14-.49.27-.04.16.54c.04.15.22.33.37.37.12.04.23.08.35.14.13.07.39.07.52,0l.49-.27.18.18-.27.49c-.08.13-.08.39,0,.53.06.1.1.21.14.33.06.19.2.32.39.38l.53.15v.26Z"/><path class="b" d="M7.92,13.97c-.61,0-1.19-.09-1.74-.26-.22-.46-.5-1.11-.74-1.92h1.18c.25,0,.45-.2.45-.45s-.2-.45-.45-.45h-1.41c-.17-.75-.3-1.59-.35-2.52h3s.02,0,.03,0c.01,0,.02,0,.03,0,.25,0,.45-.2.45-.45v-2.97h2.38c.07.41.12.82.13,1.23,0,.24.21.43.45.43,0,0,.01,0,.02,0,.25,0,.44-.22.43-.47-.02-.4-.06-.8-.12-1.2h1.51c.3.54.54,1.12.67,1.75.05.24.28.4.53.35.24-.05.4-.29.35-.53-.66-3.22-3.52-5.55-6.81-5.55C4.08.97.97,4.08.97,7.92s3.12,6.95,6.95,6.95c.25,0,.45-.2.45-.45s-.2-.45-.45-.45ZM4.27,10.88h-1.62c-.43-.75-.69-1.61-.76-2.52h2.06c.04.92.16,1.76.32,2.52ZM2.65,4.95h1.53c-.14.76-.24,1.59-.25,2.5,0,0,0,.01,0,.02H1.89c.07-.91.33-1.76.76-2.52ZM7.47,7.47h-2.64c.02-.92.12-1.76.27-2.52h2.37v2.52ZM7.47,1.89v2.16h-2.16c.2-.73.42-1.35.64-1.85.48-.17.99-.27,1.52-.31ZM8.37,1.91c.53.04,1.04.13,1.52.3.28.59.51,1.21.67,1.84h-2.19V1.91ZM12.55,4.05h-1.06c-.1-.42-.22-.83-.37-1.24.54.34,1.02.75,1.43,1.24ZM4.76,2.77c-.14.39-.27.82-.38,1.28h-1.11c.42-.51.93-.94,1.49-1.28ZM3.27,11.78h1.22c.15.53.31,1,.47,1.41-.65-.36-1.22-.84-1.7-1.41Z"/></svg>
