<?xml version="1.0" encoding="UTF-8"?><svg id="a" xmlns="http://www.w3.org/2000/svg" width="16" height="16" viewBox="0 0 16 16"><defs><style>.b{fill:#fff;}</style></defs><path class="b" d="M11.04,8.37h0c-.84,0-1.53.69-1.54,1.53,0,.41.16.8.45,1.09.29.29.68.45,1.09.45.85,0,1.54-.69,1.54-1.54,0-.41-.16-.8-.45-1.09-.29-.29-.67-.45-1.08-.45ZM11.04,10.54c-.17,0-.33-.07-.45-.19-.12-.12-.19-.28-.19-.45,0-.35.29-.63.64-.63h0c.17,0,.33.07.45.19.12.12.19.28.19.45,0,.35-.28.63-.63.63Z"/><path class="b" d="M14.69,8.91l-.58-.17c-.02-.06-.05-.13-.08-.19l.3-.54c.16-.29.12-.59-.12-.82l-.45-.45c-.25-.25-.54-.29-.85-.12l-.52.29c-.06-.03-.12-.05-.19-.08l-.17-.58c-.09-.32-.33-.5-.67-.5h-.65c-.33,0-.57.18-.66.5l-.17.59c-.06.02-.13.05-.19.08l-.53-.29c-.05-.03-.17-.1-.34-.1-.2,0-.35.07-.49.21l-.45.46c-.23.24-.28.54-.12.83l.29.53c-.03.06-.06.13-.08.19l-.58.17c-.33.1-.51.33-.51.67v.64c0,.34.18.58.51.68l.58.17c.02.07.05.13.08.19l-.3.54c-.16.29-.12.59.12.82l.44.44c.26.26.55.3.87.12l.51-.28c.06.03.13.05.19.08l.17.58c.09.33.33.5.67.5h.63c.36,0,.59-.18.69-.52l.16-.57c.07-.02.13-.05.19-.08l.53.29c.3.17.59.12.84-.12l.45-.45c.23-.24.28-.54.07-.91l-.25-.45c.03-.06.05-.13.08-.19l.58-.17c.33-.1.51-.33.51-.67v-.63c0-.35-.18-.59-.51-.68ZM14.3,10.07l-.6.17c-.2.05-.34.19-.39.38-.04.12-.09.25-.15.36-.09.17-.09.36,0,.54l.3.55-.24.24-.55-.3c-.18-.1-.37-.1-.55,0-.1.06-.22.11-.36.15-.19.06-.33.2-.38.39l-.17.6h-.34l-.17-.59c-.05-.2-.19-.34-.39-.4-.12-.04-.25-.09-.36-.15-.17-.1-.37-.1-.55,0l-.55.3-.24-.24.3-.55c.1-.18.1-.37,0-.55-.06-.11-.11-.23-.15-.37-.06-.19-.19-.32-.38-.37l-.61-.17v-.34s.59-.17.59-.17c.2-.05.34-.2.4-.39.03-.11.08-.23.15-.36.13-.24.05-.44,0-.54l-.3-.55.24-.24.55.3c.17.1.37.1.54,0,.12-.06.24-.11.37-.15.19-.06.33-.2.38-.39l.17-.57.35-.03.17.6c.05.19.19.33.38.38.13.04.26.09.38.16.14.07.4.07.53,0l.55-.31.24.24-.31.56c-.07.13-.08.4,0,.53.06.12.12.24.15.36.06.2.2.34.4.39l.6.17v.34Z"/><path class="b" d="M14.75,3.87h-5.9l-.71-1.42c-.04-.09-.1-.21-.14-.28-.08-.14-.23-.23-.39-.23H1.25c-.12,0-.23.05-.32.13-.08.08-.13.2-.13.32v10.93c0,.25.2.45.45.45h5.46c.25,0,.45-.2.45-.45s-.2-.45-.45-.45H1.7V2.84h5.63s.01.03.02.04l.82,1.64c.08.15.23.25.4.25h5.73v.22c0,.25.2.45.45.45s.45-.2.45-.45v-.67c0-.25-.2-.45-.45-.45Z"/></svg>
