<svg width="30" height="30" viewBox="0 0 80 80" fill="none" xmlns="http://www.w3.org/2000/svg">
<g filter="url(#filter0_d_1331_3449)">
<mask id="mask0_1331_3449" style="mask-type:luminance" maskUnits="userSpaceOnUse" x="4" y="2" width="72" height="72">
<rect x="4" y="2" width="72" height="72" fill="white"/>
</mask>
<g mask="url(#mask0_1331_3449)">
<rect width="108" height="108" transform="translate(-14 -16)" fill="white"/>
<path fill-rule="evenodd" clip-rule="evenodd" d="M35 34.3333V31H36.6666V34.3333H40V31H41.6666V34.3333H43.3333V32.6726H45V34.3333H47.5H48.3333V35.1667V39.3333H51.8089C52.1521 38.3623 53.0781 37.6667 54.1666 37.6667C55.5474 37.6667 56.6666 38.786 56.6666 40.1667C56.6666 41.5474 55.5474 42.6667 54.1666 42.6667C53.0781 42.6667 52.1521 41.971 51.8089 41H48.3333V49.3333H51.8089C52.1521 48.3623 53.0781 47.6667 54.1666 47.6667C55.5474 47.6667 56.6666 48.786 56.6666 50.1667C56.6666 51.5474 55.5474 52.6667 54.1666 52.6667C53.0781 52.6667 52.1521 51.971 51.8089 51H48.3333V55.1667V56H47.5H45V57.8089C45.971 58.1521 46.6666 59.0782 46.6666 60.1667C46.6666 61.5474 45.5474 62.6667 44.1666 62.6667C42.7859 62.6667 41.6666 61.5474 41.6666 60.1667C41.6666 59.0782 42.3623 58.1521 43.3333 57.8089V56H40.8333H40V61H38.3333V56H36.6666V61H35V56H32.5H31.6666V55.1667V52.6667H29.8577C29.5145 53.6377 28.5885 54.3333 27.5 54.3333C26.4115 54.3333 25.4854 53.6377 25.1422 52.6667H23.3333V51H25.1422C25.4854 50.029 26.4115 49.3333 27.5 49.3333C28.5885 49.3333 29.5145 50.029 29.8577 51H31.6666V42.6667H29.8577C29.5145 43.6377 28.5885 44.3333 27.5 44.3333C26.4115 44.3333 25.4854 43.6377 25.1422 42.6667H23.3333V41H25.1422C25.4854 40.029 26.4115 39.3333 27.5 39.3333C28.5885 39.3333 29.5145 40.029 29.8577 41H31.6666V35.1667V34.3333H32.5H35ZM33.3333 36V54.3333H40.8333H46.6666V36H33.3333ZM35 39.3333H35.8333H44.1666H45V40.1667V50.1667V51H44.1666H35.8333H35V50.1667V40.1667V39.3333ZM36.6666 41V49.3333H43.3333V41H36.6666ZM54.1666 39.3333C53.7064 39.3333 53.3333 39.7064 53.3333 40.1667C53.3333 40.6269 53.7064 41 54.1666 41C54.6269 41 55 40.6269 55 40.1667C55 39.7064 54.6269 39.3333 54.1666 39.3333ZM43.3333 60.1667C43.3333 59.7064 43.7064 59.3333 44.1666 59.3333C44.6269 59.3333 45 59.7064 45 60.1667C45 60.6269 44.6269 61 44.1666 61C43.7064 61 43.3333 60.6269 43.3333 60.1667ZM54.1666 49.3333C53.7064 49.3333 53.3333 49.7064 53.3333 50.1667C53.3333 50.6269 53.7064 51 54.1666 51C54.6269 51 55 50.6269 55 50.1667C55 49.7064 54.6269 49.3333 54.1666 49.3333ZM26.6666 41.8333C26.6666 41.3731 27.0397 41 27.5 41C27.9602 41 28.3333 41.3731 28.3333 41.8333C28.3333 42.2936 27.9602 42.6667 27.5 42.6667C27.0397 42.6667 26.6666 42.2936 26.6666 41.8333ZM27.5 51C27.0397 51 26.6666 51.3731 26.6666 51.8333C26.6666 52.2936 27.0397 52.6667 27.5 52.6667C27.9602 52.6667 28.3333 52.2936 28.3333 51.8333C28.3333 51.3731 27.9602 51 27.5 51Z" fill="black"/>
<rect x="-14" y="-16" width="108" height="40" fill="#EB0000"/>
<path fill-rule="evenodd" clip-rule="evenodd" d="M33.9901 19.4615H37.4863L32.7816 14.6731H38.6207V19.4615H41.3802V14.6731H47.2197L42.5137 19.4615H46.0102L52 13.2405L46.0102 7H42.5137L47.2197 11.8079H41.3802V7H38.6207V11.8079H32.7816L37.4863 7H33.9901L28 13.2405L33.9901 19.4615Z" fill="white"/>
</g>
</g>
<defs>
<filter id="filter0_d_1331_3449" x="0" y="0" width="80" height="80" filterUnits="userSpaceOnUse" color-interpolation-filters="sRGB">
<feFlood flood-opacity="0" result="BackgroundImageFix"/>
<feColorMatrix in="SourceAlpha" type="matrix" values="0 0 0 0 0 0 0 0 0 0 0 0 0 0 0 0 0 0 127 0" result="hardAlpha"/>
<feOffset dy="2"/>
<feGaussianBlur stdDeviation="2"/>
<feColorMatrix type="matrix" values="0 0 0 0 0 0 0 0 0 0 0 0 0 0 0 0 0 0 0.2 0"/>
<feBlend mode="normal" in2="BackgroundImageFix" result="effect1_dropShadow_1331_3449"/>
<feBlend mode="normal" in="SourceGraphic" in2="effect1_dropShadow_1331_3449" result="shape"/>
</filter>
</defs>
</svg>
